<svg xmlns="http://www.w3.org/2000/svg" width="1280" height="720" viewBox="0 0 1280 720" role="img" aria-labelledby="title desc" font-family="Inter, ui-sans-serif, system-ui, -apple-system, Segoe UI, sans-serif">
  <title id="title">Payment Intelligence System operating map</title>
  <desc id="desc">Verifies mandates, checks caps, records audit entries, and requires humans without moving money.</desc>
  <defs>
    <linearGradient id="shade" x1="0" x2="1" y1="0" y2="1">
      <stop offset="0%" stop-color="#02040a" stop-opacity="0.86"/>
      <stop offset="45%" stop-color="#02040a" stop-opacity="0.38"/>
      <stop offset="100%" stop-color="#02040a" stop-opacity="0.82"/>
    </linearGradient>
    <linearGradient id="topFade" x1="0" x2="0" y1="0" y2="1">
      <stop offset="0%" stop-color="#02040a" stop-opacity="0.88"/>
      <stop offset="100%" stop-color="#02040a" stop-opacity="0"/>
    </linearGradient>
    <filter id="softShadow" x="-20%" y="-20%" width="140%" height="140%">
      <feDropShadow dx="0" dy="16" stdDeviation="18" flood-color="#000000" flood-opacity="0.42"/>
    </filter>
  </defs>
  <rect width="1280" height="720" fill="#05070d"/>
  <image href="visual-suite/backplates/red-blue-assurance.png" x="0" y="0" width="1280" height="720" preserveAspectRatio="xMidYMid slice" opacity="0.88"/>
  <rect width="1280" height="720" fill="url(#shade)"/>
  <rect x="28" y="28" width="1224" height="664" rx="32" fill="none" stroke="rgba(255,255,255,0.18)"/>
  <text x="56" y="82" font-size="15" font-weight="900" fill="#fb7185" letter-spacing="3">L5 / HOW THIS REPO WORKS</text>
  <text x="56" y="152" font-size="54" font-weight="900" fill="#f8fafc" opacity="1"><tspan x="56" dy="0">Payment Intelligence System</tspan></text>
  <text x="58" y="236" font-size="22" font-weight="650" fill="#d7e2f3" opacity="1"><tspan x="58" dy="0">Verifies mandates, checks caps, records audit entries, and requires</tspan><tspan x="58" dy="27.5">humans without moving money.</tspan></text>
  <g>
    <rect x="856" y="76" width="340" height="220" rx="24" fill="rgba(3,7,18,0.72)" stroke="rgba(255,255,255,0.18)"/>
    <text x="884" y="116" font-size="13" font-weight="900" fill="#fb7185" letter-spacing="2">OUTPUTS</text>
    <g>
      <circle cx="895" cy="154" r="6" fill="#fb7185"/>
      <text x="914" y="161" font-size="20" font-weight="750" fill="#f8fafc">Verify-only MCP</text>
    </g><g>
      <circle cx="895" cy="202" r="6" fill="#fb7185"/>
      <text x="914" y="209" font-size="20" font-weight="750" fill="#f8fafc">Audit receipts</text>
    </g><g>
      <circle cx="895" cy="250" r="6" fill="#fb7185"/>
      <text x="914" y="257" font-size="20" font-weight="750" fill="#f8fafc">Human approval objects</text>
    </g>
  </g>
  <line x1="70" y1="360" x2="1188" y2="360" stroke="#fb7185" stroke-width="2" opacity="0.65"/>
  <g>
    <rect x="54" y="390" width="270" height="178" rx="18" fill="rgba(5,8,14,0.74)" stroke="rgba(255,255,255,0.18)"/>
    <rect x="54" y="390" width="5" height="178" rx="2.5" fill="#fb7185"/>
    <text x="76" y="421" font-size="13" font-weight="900" fill="#fb7185">01</text>
    <text x="76" y="451" font-size="21" font-weight="850" fill="#f8fafc" opacity="1"><tspan x="76" dy="0">Verify mandate</tspan></text>
    <text x="76" y="473" font-size="14" font-weight="500" fill="#b6c2d6" opacity="1"><tspan x="76" dy="0">Start from source truth.</tspan></text>
  </g><g>
    <rect x="352" y="390" width="270" height="178" rx="18" fill="rgba(5,8,14,0.74)" stroke="rgba(255,255,255,0.18)"/>
    <rect x="352" y="390" width="5" height="178" rx="2.5" fill="#fb7185"/>
    <text x="374" y="421" font-size="13" font-weight="900" fill="#fb7185">02</text>
    <text x="374" y="451" font-size="21" font-weight="850" fill="#f8fafc" opacity="1"><tspan x="374" dy="0">Check spend cap</tspan></text>
    <text x="374" y="473" font-size="14" font-weight="500" fill="#b6c2d6" opacity="1"><tspan x="374" dy="0">Create the artifact.</tspan></text>
  </g><g>
    <rect x="650" y="390" width="270" height="178" rx="18" fill="rgba(5,8,14,0.74)" stroke="rgba(255,255,255,0.18)"/>
    <rect x="650" y="390" width="5" height="178" rx="2.5" fill="#fb7185"/>
    <text x="672" y="421" font-size="13" font-weight="900" fill="#fb7185">03</text>
    <text x="672" y="451" font-size="21" font-weight="850" fill="#f8fafc" opacity="1"><tspan x="672" dy="0">Record audit</tspan></text>
    <text x="672" y="473" font-size="14" font-weight="500" fill="#b6c2d6" opacity="1"><tspan x="672" dy="0">Keep evidence attached.</tspan></text>
  </g><g>
    <rect x="948" y="390" width="270" height="178" rx="18" fill="rgba(5,8,14,0.74)" stroke="rgba(255,255,255,0.18)"/>
    <rect x="948" y="390" width="5" height="178" rx="2.5" fill="#fb7185"/>
    <text x="970" y="421" font-size="13" font-weight="900" fill="#fb7185">04</text>
    <text x="970" y="451" font-size="21" font-weight="850" fill="#f8fafc" opacity="1"><tspan x="970" dy="0">Require human</tspan><tspan x="970" dy="22.05">approval</tspan></text>
    <text x="970" y="496" font-size="14" font-weight="500" fill="#b6c2d6" opacity="1"><tspan x="970" dy="0">Escalate risky actions.</tspan></text>
  </g>
  <text x="58" y="652" font-size="13" font-weight="800" fill="#8ea3bd">Backplate: Red/Blue Assurance / exact labels rendered in SVG</text>
</svg>
